HIERARCHY
ROOT Hips
{
    OFFSET 0.000000 0.000000 0.000000
    CHANNELS 6 Xposition Yposition Zposition Zrotation Xrotation Yrotation
    JOINT Spine
    {
        OFFSET -0.000000 8.339920 0.000000
        CHANNELS 3 Zrotation Xrotation Yrotation
        JOINT Spine1
        {
            OFFSET -0.000000 25.214485 0.000000
            CHANNELS 3 Zrotation Xrotation Yrotation
            JOINT Neck
            {
                OFFSET -0.000000 25.110935 2.282812
                CHANNELS 3 Zrotation Xrotation Yrotation
                JOINT Head
                {
                    OFFSET -0.000000 14.238888 -2.034127
                    CHANNELS 3 Zrotation Xrotation Yrotation
                    End Site
                    {
                        OFFSET -0.000000 25.426584 0.000000
                    }
                }
            }
            JOINT LeftShoulder
            {
                OFFSET 4.025024 23.158985 -0.185822
                CHANNELS 3 Zrotation Xrotation Yrotation
                JOINT LeftArm
                {
                    OFFSET 11.674057 0.000000 0.000000
                    CHANNELS 3 Zrotation Xrotation Yrotation
                    JOINT LeftForeArm
                    {
                        OFFSET 31.688633 0.000000 0.000000
                        CHANNELS 3 Zrotation Xrotation Yrotation
                        JOINT LeftHand
                        {
                            OFFSET 29.704493 0.000000 0.000000
                            CHANNELS 3 Zrotation Xrotation Yrotation
                            End Site
                            {
                                OFFSET 15.255952 0.000000 0.000000
                            }
                        }
                    }
                }
            }
            JOINT RightShoulder
            {
                OFFSET -4.099539 23.158985 -0.185822
                CHANNELS 3 Zrotation Xrotation Yrotation
                JOINT RightArm
                {
                    OFFSET -11.674057 0.000000 0.000000
                    CHANNELS 3 Zrotation Xrotation Yrotation
                    JOINT RightForeArm
                    {
                        OFFSET -31.688633 0.000000 0.000000
                        CHANNELS 3 Zrotation Xrotation Yrotation
                        JOINT RightHand
                        {
                            OFFSET -29.704493 0.000000 0.000000
                            CHANNELS 3 Zrotation Xrotation Yrotation
                            End Site
                            {
                                OFFSET -15.255952 0.000000 0.000000
                            }
                        }
                    }
                }
            }
        }
    }
    JOINT LeftUpLeg
    {
        OFFSET 10.170634 0.000000 0.000000
        CHANNELS 3 Zrotation Xrotation Yrotation
        JOINT LeftLeg
        {
            OFFSET -0.000000 -41.352962 0.000000
            CHANNELS 3 Zrotation Xrotation Yrotation
            JOINT LeftFoot
            {
                OFFSET -0.000000 -47.535004 0.000000
                CHANNELS 3 Zrotation Xrotation Yrotation
                JOINT LeftToeBase
                {
                    OFFSET -0.000000 -6.610912 15.255952
                    CHANNELS 3 Zrotation Xrotation Yrotation
                    End Site
                    {
                        OFFSET -0.000000 0.000000 4.068254
                    }
                }
            }
        }
    }
    JOINT RightUpLeg
    {
        OFFSET -10.170634 0.000000 0.000000
        CHANNELS 3 Zrotation Xrotation Yrotation
        JOINT RightLeg
        {
            OFFSET -0.000000 -41.352962 0.000000
            CHANNELS 3 Zrotation Xrotation Yrotation
            JOINT RightFoot
            {
                OFFSET -0.000000 -47.535004 0.000000
                CHANNELS 3 Zrotation Xrotation Yrotation
                JOINT RightToeBase
                {
                    OFFSET -0.000000 -6.610912 15.255952
                    CHANNELS 3 Zrotation Xrotation Yrotation
                    End Site
                    {
                        OFFSET -0.000000 0.000000 4.068254
                    }
                }
            }
        }
    }
}
MOTION
Frames:    4
Frame Time:    0.008333
26.937468    102.042435    40.036755    -20.558147    15.491539    82.103691    -8.509847    -5.411867    2.419472    -11.183697    6.675298    3.476686    -3.863590    19.071438    -10.304845    8.890895    3.029127    -9.809082    10.954252    0.395313    -11.320281    -56.867489    35.246288    -7.141996    16.252092    -18.670967    -34.414089    -22.230604    -12.487745    -6.874503    -11.183887    -3.615450    5.301026    48.247845    49.870056    18.153694    -10.472802    -19.594185    36.095703    -9.089849    -17.113899    10.167940    49.857578    -83.439949    41.479698    -73.524673    63.265182    76.800743    2.446720    -35.301010    3.606185    0.000000    0.000000    0.000000    -14.474195    -28.061565    -7.846816    -4.674363    22.344223    2.941475    11.510547    14.608277    0.826059    0.000000    0.000000    0.000000    
27.292166    103.091599    39.994793    -20.929203    15.181313    81.568680    -8.789722    -5.424921    2.394220    -10.664359    6.164080    3.387311    -3.851788    19.060938    -10.042870    8.561850    3.071191    -9.575776    10.630750    0.740156    -11.281189    -56.375286    35.754017    -7.053391    16.366474    -19.165834    -34.394318    -21.699602    -13.084793    -6.411170    -11.263696    -3.481785    5.466100    48.258648    50.012444    17.838575    -10.073405    -20.029240    36.196545    -9.857564    -17.681757    9.505270    45.432266    -82.774689    37.234451    -70.376373    63.418060    74.073898    2.232785    -34.927265    3.461314    0.000000    0.000000    0.000000    -14.006541    -27.837330    -8.108951    -4.572513    20.570063    1.738297    11.212338    19.734524    2.018818    0.000000    0.000000    0.000000    
27.712908    104.214928    39.939503    -20.907381    14.805692    81.032547    -8.902918    -5.119401    2.392754    -10.374377    5.885396    3.326298    -3.493927    18.938093    -10.076187    7.788320    3.082922    -9.686383    10.598136    0.740699    -11.228952    -56.218281    36.416641    -7.017372    16.576187    -19.891861    -33.922363    -21.400522    -13.804774    -6.708687    -11.560037    -3.364469    5.155492    47.916737    50.331654    18.206715    -10.180357    -19.837399    35.877502    -8.867367    -17.442234    10.011223    38.530499    -81.645859    30.332504    -66.962334    63.173645    70.832085    2.214715    -34.684177    3.598456    0.000000    0.000000    0.000000    -13.420338    -26.981119    -7.988144    -4.458145    18.461760    0.200145    11.969700    25.124901    2.314052    0.000000    0.000000    0.000000    
28.077681    105.260216    39.829781    -21.344261    14.691437    80.545204    -9.204061    -5.229954    2.336028    -10.174598    5.275909    3.227306    -3.551700    19.121828    -9.895630    8.026142    3.175241    -9.484843    10.637343    1.207554    -11.189896    -55.776203    37.034546    -7.124685    16.713600    -20.404593    -33.620754    -21.299746    -14.306738    -6.922551    -11.293104    -3.055744    5.337436    47.624348    50.418461    17.980587    -10.080606    -20.145685    35.615860    -8.288435    -17.814148    10.765092    35.305450    -80.922211    27.387369    -63.687229    63.032112    67.903358    1.990457    -34.314739    3.490335    0.000000    0.000000    0.000000    -13.300195    -26.846037    -8.063073    -4.056204    16.761957    -0.591300    13.885902    29.462868    0.866216    0.000000    0.000000    0.000000    
